<svg xmlns="http://www.w3.org/2000/svg" viewBox="0 0 512 512" fill="none">
  <rect width="512" height="512" rx="64" fill="#16a34a"/>
  <path d="M256 140c-44.2 0-80 35.8-80 80s35.8 80 80 80 80-35.8 80-80-35.8-80-80-80z" fill="#fff"/>
  <path d="M256 340c-66.3 0-120-53.7-120-120s53.7-120 120-120 120 53.7 120 120-53.7 120-120 120zm0-200c-44.2 0-80 35.8-80 80s35.8 80 80 80 80-35.8 80-80-35.8-80-80-80z" fill="#fff" opacity="0.9"/>
  <path d="M180 320h152l-20 60c-4 12-15.2 20-27.6 20h-56.8c-12.4 0-23.6-8-27.6-20l-20-60z" fill="#fff"/>
  <circle cx="180" cy="220" r="15" fill="#fff" opacity="0.7"/>
  <circle cx="332" cy="220" r="15" fill="#fff" opacity="0.7"/>
  <path d="M256 100v40" stroke="#fff" stroke-width="8" stroke-linecap="round" opacity="0.6"/>
  <path d="M156 160l28 28" stroke="#fff" stroke-width="8" stroke-linecap="round" opacity="0.6"/>
  <path d="M328 188l28-28" stroke="#fff" stroke-width="8" stroke-linecap="round" opacity="0.6"/>
</svg>